<?xml version="1.0" encoding="UTF-8" standalone="no"?>
<!-- Created with Inkscape (http://www.inkscape.org/) -->

<svg
   xmlns:svg="http://www.w3.org/2000/svg"
   xmlns="http://www.w3.org/2000/svg"
   version="1.1"
   width="327.27249"
   height="226.1749"
   id="svg2">
  <defs
     id="defs4">
    <clipPath
       id="clipPath2855">
      <path
         d="M 0,1809.4 0,0 l 2618.18,0 0,1809.4 -2618.18,0 z"
         id="path2857" />
    </clipPath>
  </defs>
  <g
     transform="translate(-0.3188954,-0.31276681)"
     id="layer1">
    <g
       transform="matrix(0.125,0,0,-0.125,0.3188954,226.48767)"
       id="g2849">
      <g
         id="g2851">
        <g
           clip-path="url(#clipPath2855)"
           id="g2853">
          <path
             d="m 0,561.281 19.1914,0 0,-90.66 119.7226,0 0,90.66 19.199,0 0,-208.953 -19.199,0 0,101.141 -119.7226,0 0,-101.141 -19.1914,0 0,208.953"
             id="path2859"
             style="fill:#231f20;fill-opacity:1;fill-rule:nonzero;stroke:none" />
          <path
             d="m 318.816,352.328 -16.875,0 0,24.113 C 290.32,357.262 274.055,348.25 251.379,348.25 c -34.27,0 -51.137,18.031 -51.137,53.461 l 0,101.461 17.473,0 0,-97.383 c 0,-28.75 9.258,-42.129 36.855,-42.129 28.782,0 46.778,19.199 46.778,50.281 l 0,89.231 17.468,0 0,-150.844"
             id="path2861"
             style="fill:#231f20;fill-opacity:1;fill-rule:nonzero;stroke:none" />
          <path
             d="m 359.785,352.328 17.4336,0 0,208.953 -17.4336,0 0,-208.953 z"
             id="path2863"
             style="fill:#231f20;fill-opacity:1;fill-rule:nonzero;stroke:none" />
          <path
             d="m 419.648,352.328 17.4297,0 0,208.953 -17.4297,0 0,-208.953 z"
             id="path2865"
             style="fill:#231f20;fill-opacity:1;fill-rule:nonzero;stroke:none" />
          <path
             d="m 868.059,561.281 19.226,0 0,-90.66 119.725,0 0,90.66 19.16,0 0,-208.953 -19.16,0 0,101.141 -119.725,0 0,-101.141 -19.226,0 0,208.953"
             id="path2867"
             style="fill:#231f20;fill-opacity:1;fill-rule:nonzero;stroke:none" />
          <path
             d="m 1070.63,503.172 17.47,0 0,-150.844 -17.47,0 0,150.844 z m 0,58.109 17.47,0 0,-26.152 -17.47,0 0,26.152"
             id="path2869"
             style="fill:#231f20;fill-opacity:1;fill-rule:nonzero;stroke:none" />
          <path
             d="m 1140.39,399.422 c 0.28,-20.91 16.57,-35.762 39.82,-35.762 25.85,0 40.37,11.621 40.37,28.192 0,18.589 -13.95,21.769 -40.66,28.199 -36.06,8.73 -54.37,17.148 -54.37,43.32 0,25.527 20.95,43.551 52.07,43.551 33.96,0 54.91,-18.024 56.94,-47.934 l -18.04,0 c -1.19,20.364 -15.4,32.543 -39.23,32.543 -21.2,0 -33.68,-10.722 -33.68,-25.883 0,-22.07 17.7,-24.136 49.1,-31.66 31.95,-7.847 45.93,-18 45.93,-42.398 0,-25 -22.12,-43.34 -57.58,-43.34 -35.14,0 -57.84,20.059 -58.7,51.172 l 18.03,0"
             id="path2871"
             style="fill:#231f20;fill-opacity:1;fill-rule:nonzero;stroke:none" />
          <path
             d="m 1294.43,503.172 27.89,0 0,-14.274 -27.89,0 0,-109.828 c 0,-11.05 1.42,-16.269 11.01,-16.269 4.65,0 10.2,1.429 16.88,2.89 l 0,-13.941 c -7.85,-2.031 -14.82,-3.199 -21.52,-3.199 -19.46,0 -23.85,9.898 -23.85,30.519 l 0,109.828 -20.61,0 0,14.274 20.61,0 0,43.308 17.48,0 0,-43.308"
             id="path2873"
             style="fill:#231f20;fill-opacity:1;fill-rule:nonzero;stroke:none" />
          <path
             d="m 1411.83,363.961 c 32.29,0 51.45,22.379 51.45,63.648 0,41.27 -19.16,63.922 -51.45,63.922 -31.97,0 -51.15,-22.652 -51.15,-63.922 0,-41.269 19.18,-63.648 51.15,-63.648 z m 0,142.961 c 43.87,0 69.47,-28.75 69.47,-79.313 0,-50.57 -25.6,-79.058 -69.47,-79.058 -43.89,0 -69.16,28.488 -69.16,79.058 0,50.563 25.27,79.313 69.16,79.313"
             id="path2875"
             style="fill:#231f20;fill-opacity:1;fill-rule:nonzero;stroke:none" />
          <path
             d="m 1512.38,503.172 16.85,0 0,-26.461 c 9.01,20.918 24.71,30.211 46.49,30.211 0.56,0 1.46,0 2.07,0 l 0,-18.024 c -0.86,0 -1.51,0 -2.33,0 -29.96,0 -45.66,-17.988 -45.66,-52.847 l 0,-83.723 -17.42,0 0,150.844"
             id="path2877"
             style="fill:#231f20;fill-opacity:1;fill-rule:nonzero;stroke:none" />
          <path
             d="m 1608,290.422 c -4.08,0 -7.87,0.289 -12.22,1.469 l 0,15.988 c 5.25,-0.899 9.29,-2.047 11.93,-2.047 14.82,0 19.75,8.727 26.11,25.859 l 6.98,18.887 -58.7,152.594 18.64,0 48.81,-128.75 47.67,128.75 18.03,0 -66.84,-180.192 c -8.47,-22.968 -19.49,-32.558 -40.41,-32.558"
             id="path2879"
             style="fill:#231f20;fill-opacity:1;fill-rule:nonzero;stroke:none" />
          <path
             d="m 1983.45,420.602 c -3.18,-46.18 -33.98,-74.071 -83.4,-74.071 -55.5,0 -90.97,40.981 -90.97,110.731 0,69.16 36.05,109.547 91.58,109.547 47.64,0 78.71,-26.45 80.78,-66.547 l -18.91,0 c -3.18,30.508 -26.71,49.398 -61.87,49.398 -44.47,0 -71.8,-32.558 -71.8,-92.129 0,-60.179 28.21,-93.871 72.37,-93.871 37.18,0 60.72,21.211 63.34,56.942 l 18.88,0"
             id="path2881"
             style="fill:#231f20;fill-opacity:1;fill-rule:nonzero;stroke:none" />
          <path
             d="m 2121.52,438.641 c -1.47,33.418 -19.49,52.89 -46.54,52.89 -27,0 -46.2,-19.761 -47.91,-52.89 l 94.45,0 z m -94.45,-15.11 c 0,-37.801 19.74,-59.871 48.82,-59.871 23.52,0 40.69,13.09 44.16,35.16 l 17.45,0 c -3.75,-30.511 -28.21,-50.57 -62.76,-50.57 -40.7,0 -65.72,28.789 -65.72,78.77 0,50.859 25.27,79.902 66.29,79.902 40.1,0 64.2,-27.57 64.2,-76.692 0,-1.761 0,-3.769 0,-5.808 l -112.44,0 c 0,-0.293 0,-0.602 0,-0.891"
             id="path2883"
             style="fill:#231f20;fill-opacity:1;fill-rule:nonzero;stroke:none" />
          <path
             d="m 2170.62,503.172 16.84,0 0,-24.141 c 11.36,18.598 27.89,27.891 49.98,27.891 20.93,0 37.2,-7.852 45.35,-21.211 5.8,-9.289 6.11,-21.211 6.11,-37.18 0,-1.472 0,-2.91 0,-4.383 l 0,-91.82 -17.44,0 0,94.16 c 0,30.532 -6.7,45.043 -37.48,45.043 -27.62,0 -45.92,-18.902 -45.92,-50.269 l 0,-88.934 -17.44,0 0,150.844"
             id="path2885"
             style="fill:#231f20;fill-opacity:1;fill-rule:nonzero;stroke:none" />
          <path
             d="m 2350.23,503.172 27.89,0 0,-14.274 -27.89,0 0,-109.828 c 0,-11.05 1.44,-16.269 11.05,-16.269 4.61,0 10.16,1.429 16.84,2.89 l 0,-13.941 c -7.85,-2.031 -14.82,-3.199 -21.52,-3.199 -19.46,0 -23.85,9.898 -23.85,30.519 l 0,109.828 -20.61,0 0,14.274 20.61,0 0,43.308 17.48,0 0,-43.308"
             id="path2887"
             style="fill:#231f20;fill-opacity:1;fill-rule:nonzero;stroke:none" />
          <path
             d="m 2406.03,503.172 16.84,0 0,-26.461 c 9.04,20.918 24.7,30.211 46.48,30.211 0.61,0 1.47,0 2.03,0 l 0,-18.024 c -0.86,0 -1.42,0 -2.28,0 -29.96,0 -45.67,-17.988 -45.67,-52.847 l 0,-83.723 -17.4,0 0,150.844"
             id="path2889"
             style="fill:#231f20;fill-opacity:1;fill-rule:nonzero;stroke:none" />
          <path
             d="m 2600.15,438.641 c -1.46,33.418 -19.49,52.89 -46.48,52.89 -27.07,0 -46.23,-19.761 -47.99,-52.89 l 94.47,0 z m -94.47,-15.11 c 0,-37.801 19.78,-59.871 48.85,-59.871 23.53,0 40.66,13.09 44.16,35.16 l 17.42,0 c -3.75,-30.511 -28.15,-50.57 -62.76,-50.57 -40.7,0 -65.66,28.789 -65.66,78.77 0,50.859 25.29,79.902 66.27,79.902 40.08,0 64.22,-27.57 64.22,-76.692 0,-1.761 0,-3.769 0,-5.808 l -112.5,0 c 0,-0.293 0,-0.602 0,-0.891"
             id="path2891"
             style="fill:#231f20;fill-opacity:1;fill-rule:nonzero;stroke:none" />
          <path
             d="m 693.027,1773.85 c -5.769,-16.07 -4.89,-33.44 2.461,-48.92 7.547,-15.88 20.95,-27.82 37.754,-33.68 3.778,-1.29 7.863,0.75 9.192,4.54 1.265,3.76 -0.696,7.92 -4.465,9.25 -13.133,4.51 -23.594,13.83 -29.461,26.19 -5.649,11.93 -6.352,25.31 -1.938,37.71 7.278,20.2 29.922,30.83 50.508,23.7 7.734,-2.64 13.879,-8.13 17.297,-15.38 3.359,-6.99 3.789,-14.85 1.199,-22.14 -4.219,-11.6 -17.215,-17.68 -29.09,-13.56 -4.25,1.43 -7.597,4.44 -9.543,8.44 -1.863,3.85 -2.078,8.19 -0.664,12.24 2.192,6.02 9.082,9.2 15.325,7.03 2.058,-0.69 3.718,-2.16 4.609,-4.05 0.867,-1.84 0.984,-3.93 0.281,-5.81 -1.336,-3.78 0.617,-7.93 4.387,-9.32 3.75,-1.34 7.851,0.61 9.226,4.37 2.012,5.62 1.711,11.66 -0.875,17.06 -2.621,5.45 -7.21,9.55 -12.902,11.51 -13.64,4.71 -28.73,-2.4 -33.613,-15.88 -2.754,-7.76 -2.324,-16.15 1.211,-23.51 3.672,-7.51 9.992,-13.17 17.929,-15.88 19.192,-6.65 40.418,3.4 47.227,22.42 3.984,10.98 3.359,22.84 -1.687,33.35 -5.122,10.82 -14.25,18.93 -25.637,22.88 -28.008,9.68 -58.899,-4.93 -68.731,-32.56"
             id="path2893"
             style="fill:#231f20;fill-opacity:1;fill-rule:nonzero;stroke:none" />
          <path
             d="m 863.848,1753.1 c -22.266,-9.31 -33.289,-35.27 -24.66,-57.9 5.167,-13.47 15.109,-23.95 28.109,-29.56 12.945,-5.6 27.312,-5.66 40.457,-0.17 3.058,1.26 4.465,4.78 3.223,7.81 -1.258,3.06 -4.715,4.48 -7.723,3.23 -10.18,-4.27 -21.301,-4.24 -31.289,0.11 -10.031,4.31 -17.746,12.45 -21.723,22.82 -6.375,16.69 1.762,35.83 18.164,42.59 5.91,2.51 12.485,2.5 18.332,-0.06 5.879,-2.52 10.391,-7.31 12.742,-13.42 3.657,-9.57 -0.996,-20.59 -10.386,-24.52 -3.282,-1.36 -6.906,-1.3 -10.129,0.06 -3.223,1.38 -5.711,4.02 -7,7.38 -1.914,5.03 0.523,10.89 5.508,12.95 1.558,0.66 3.25,0.64 4.8,-0.02 1.504,-0.67 2.739,-1.94 3.332,-3.51 1.165,-3.1 4.598,-4.64 7.676,-3.43 3.047,1.18 4.602,4.59 3.367,7.69 -1.753,4.65 -5.261,8.27 -9.746,10.24 -4.48,1.93 -9.461,1.93 -13.964,0.06 -10.821,-4.55 -16.219,-17.21 -12.071,-28.26 2.485,-6.39 7.238,-11.37 13.418,-14.07 6.176,-2.65 13.02,-2.71 19.309,-0.12 15.254,6.41 22.859,24.24 16.953,39.83 -3.527,9.17 -10.293,16.31 -19.16,20.12 -8.821,3.83 -18.567,3.87 -27.539,0.15"
             id="path2895"
             style="fill:#231f20;fill-opacity:1;fill-rule:nonzero;stroke:none" />
          <path
             d="M 837.93,1067.26 C 699.387,968.312 668.359,684.801 685.508,452.512 698.762,273.391 745.527,75.6211 820.168,37.6484 c 9.82,-4.9765 21.773,-1 26.746,8.8828 4.941,9.8282 1.008,21.8985 -8.789,26.9376 -42.645,21.6796 -96.738,162.9722 -112.898,381.9922 -15.625,211.289 10.535,489.687 135.711,579.089 91.281,65.14 210.462,53.93 277.262,-26.13 25.65,-30.791 37.65,-69.58 33.77,-109.131 -3.9,-39.844 -23.49,-75.82 -55.13,-101.269 -50.54,-40.801 -125.414,-33.559 -166.774,16.113 -15.23,18.262 -22.363,41.172 -20,64.551 2.289,23.554 13.911,44.804 32.59,59.863 29.364,23.691 72.734,19.453 96.804,-9.375 8.5,-10.137 12.45,-22.871 11.18,-35.899 -1.35,-13.144 -7.8,-24.961 -18.22,-33.359 -8.6,-6.875 -9.98,-19.512 -3.12,-28.144 6.84,-8.633 19.35,-10.079 27.96,-3.165 18.89,15.176 30.57,36.719 32.95,60.723 2.39,23.848 -4.83,47.188 -20.27,65.684 -37.82,45.318 -106.085,51.998 -152.159,14.843 -27.136,-21.835 -43.972,-52.832 -47.293,-87.226 -3.418,-34.238 6.946,-67.695 29.055,-94.258 55.215,-66.25 154.907,-75.941 222.197,-21.66 40.01,32.211 64.82,77.891 69.8,128.633 4.97,50.41 -10.25,99.718 -42.89,138.866 -80.24,96.15 -222.412,110.36 -330.72,33.05"
             id="path2897"
             style="fill:#231f20;fill-opacity:1;fill-rule:nonzero;stroke:none" />
          <path
             d="m 304.98,1121.57 c -24.765,-44.07 -30.769,-95.01 -16.894,-143.511 14.141,-49.278 47.004,-90.059 92.5,-114.727 76.152,-41.328 172.394,-13.965 214.59,60.977 16.804,29.961 20.871,64.566 11.426,97.491 -9.559,33.39 -31.805,60.99 -62.657,77.7 -52.175,28.33 -118.086,9.55 -146.992,-41.85 -11.68,-20.85 -14.504,-44.97 -7.93,-67.888 6.668,-23.266 22.176,-42.504 43.594,-54.125 9.68,-5.235 21.746,-1.582 26.961,8.164 5.18,9.746 1.594,21.894 -8.113,27.148 -11.903,6.446 -20.535,17.102 -24.192,29.931 -3.589,12.5 -2.097,25.64 4.329,37.03 18.281,32.54 60.207,44.35 93.488,26.27 21.316,-11.55 36.707,-30.55 43.301,-53.53 6.433,-22.462 3.652,-46.127 -7.856,-66.595 -31.597,-56.114 -103.847,-76.504 -161.023,-45.469 -36.074,19.57 -62.024,51.738 -73.196,90.59 -10.906,38.034 -6.171,78.044 13.301,112.594 52.375,93.23 169.668,126.32 266.953,75.35 44.825,-23.46 74.211,-99.78 82.825,-214.921 C 711.555,664.52 586.562,152.262 428.398,36.2188 419.531,29.7383 417.559,17.1797 424.055,8.19141 430.488,-0.710938 442.98,-2.67188 451.809,3.83984 531.531,62.2812 608.953,212.391 664.309,415.559 c 51.961,190.82 76.171,396.289 64.714,549.609 -9.929,133.252 -44.921,216.552 -104.043,247.522 -116.445,61.01 -256.992,20.92 -320,-91.12"
             id="path2899"
             style="fill:#231f20;fill-opacity:1;fill-rule:nonzero;stroke:none" />
          <path
             d="m 1186.75,1366.16 c -20.71,-1.82 -39.3,-11.55 -52.43,-27.34 -12.79,-15.36 -18.85,-34.74 -17.05,-54.55 0.42,-4.66 4.51,-8.08 9.13,-7.68 4.62,0.43 8.06,4.55 7.63,9.23 -1.4,15.29 3.3,30.22 13.19,42.1 10.25,12.35 24.8,19.94 40.96,21.32 25.37,2.23 47.76,-16.12 50.04,-40.94 0.82,-8.96 -1.92,-17.72 -7.73,-24.71 -6.08,-7.28 -14.61,-11.72 -24.17,-12.54 -14.51,-1.28 -27.39,9.24 -28.7,23.46 -0.49,4.88 1.07,9.7 4.21,13.52 3.37,4.06 8.08,6.51 13.44,6.99 7.66,0.67 14.44,-4.82 15.1,-12.21 0.23,-2.34 -0.5,-4.65 -2.03,-6.5 -1.62,-1.92 -3.95,-3.12 -6.5,-3.31 -4.63,-0.43 -8.04,-4.53 -7.68,-9.18 0.42,-4.65 4.45,-8.13 9.13,-7.7 7.04,0.59 13.42,3.9 17.9,9.31 4.45,5.32 6.52,12.03 5.93,18.92 -1.52,16.68 -16.49,29.03 -33.3,27.55 -9.84,-0.87 -18.68,-5.49 -24.89,-12.99 -6.11,-7.3 -8.93,-16.53 -8.1,-25.95 2.19,-23.5 23.22,-40.89 46.94,-38.79 14.04,1.22 26.67,7.79 35.6,18.53 8.7,10.47 12.82,23.66 11.62,37.18 -3.13,34.04 -33.71,59.29 -68.24,56.28"
             id="path2901"
             style="fill:#231f20;fill-opacity:1;fill-rule:nonzero;stroke:none" />
          <path
             d="m 150.461,1140.45 c -10.695,-16.17 -14.445,-35.49 -10.481,-54.44 4.004,-19.19 15.418,-35.65 32.09,-46.35 28.262,-17.98 66.145,-10.05 84.473,17.67 7.402,11.26 10.039,24.74 7.258,37.88 -2.817,13.36 -10.715,24.75 -22.27,32.13 -19.832,12.66 -46.453,7.1 -59.383,-12.46 -5.339,-8.07 -7.16,-17.72 -5.195,-27.19 1.961,-9.59 7.664,-17.8 15.969,-23.1 5.039,-3.17 11.726,-1.7 14.91,3.39 3.223,5.07 1.73,11.79 -3.352,15.03 -3.289,2.1 -5.585,5.37 -6.375,9.18 -0.761,3.69 -0.07,7.44 2.059,10.59 6.508,9.82 19.816,12.54 29.797,6.13 6.57,-4.2 11.101,-10.65 12.668,-18.21 1.531,-7.41 0.113,-14.94 -4.082,-21.28 -11.887,-17.95 -36.496,-23.04 -54.863,-11.33 -11.758,7.48 -19.746,19 -22.532,32.41 -2.761,13.18 -0.168,26.62 7.305,37.88 20.383,30.86 62.617,39.63 93.992,19.53 19.731,-12.63 33.188,-32.02 37.949,-54.61 4.641,-22.17 0.266,-44.84 -12.285,-63.82 -3.316,-4.98 -1.953,-11.76 2.961,-15.1 4.981,-3.34 11.719,-1.99 15.039,3.02 15.84,23.89 21.321,52.44 15.442,80.43 -5.95,28.35 -22.817,52.67 -47.5,68.46 -41.25,26.4 -96.7,14.82 -123.594,-25.84"
             id="path2903"
             style="fill:#231f20;fill-opacity:1;fill-rule:nonzero;stroke:none" />
          <path
             d="m 262.422,1316.47 c -17.356,-9.53 -29.856,-25.17 -35.195,-44.08 -5.215,-18.62 -2.793,-38.17 6.789,-55.04 16.406,-28.95 53.648,-39.35 82.937,-23.23 12.07,6.58 20.774,17.42 24.473,30.53 3.672,12.94 2.012,26.5 -4.629,38.22 -11.57,20.41 -37.754,27.78 -58.379,16.47 -8.691,-4.79 -14.902,-12.6 -17.527,-22.03 -2.621,-9.29 -1.477,-19.02 3.32,-27.44 2.918,-5.22 9.559,-7.04 14.727,-4.08 5.195,2.98 7.019,9.67 4.031,14.86 -1.895,3.29 -2.305,7.12 -1.328,10.74 1.093,3.75 3.586,6.87 7.136,8.82 10.332,5.65 23.457,2.03 29.211,-8.14 3.782,-6.59 4.7,-14.2 2.637,-21.46 -2.109,-7.42 -7.109,-13.62 -13.984,-17.37 -19.09,-10.47 -43.262,-3.79 -53.848,14.92 -6.688,11.76 -8.367,25.37 -4.734,38.31 3.699,13.2 12.468,24.15 24.683,30.85 32.805,17.98 74.309,6.48 92.5,-25.64 11.242,-19.75 14.055,-42.62 7.91,-64.41 -6.25,-22.31 -21.035,-40.81 -41.636,-52.15 -5.286,-2.87 -7.168,-9.48 -4.336,-14.78 2.871,-5.28 9.453,-7.24 14.695,-4.33 25.73,14.14 44.277,37.35 52.09,65.35 7.707,27.44 4.211,56.27 -9.922,81.14 -24.004,42.33 -78.563,57.56 -121.621,33.97"
             id="path2905"
             style="fill:#231f20;fill-opacity:1;fill-rule:nonzero;stroke:none" />
          <path
             d="m 210.129,997.086 c -23.188,-6.961 -42.141,-22.484 -53.332,-43.695 -10.891,-20.664 -13.113,-44.297 -6.211,-66.543 11.941,-38.223 53.191,-59.903 92.043,-48.243 15.84,4.786 28.785,15.411 36.426,29.844 7.422,14.121 8.965,30.332 4.215,45.645 -8.231,26.465 -36.786,41.465 -63.653,33.457 -11.219,-3.399 -20.32,-10.84 -25.703,-21.074 -5.203,-9.981 -6.309,-21.407 -2.945,-32.188 5.886,-19.023 26.328,-29.785 45.562,-23.984 5.696,1.738 8.989,7.812 7.231,13.554 -1.731,5.762 -7.739,9.063 -13.43,7.305 -7.961,-2.402 -16.328,1.953 -18.711,9.648 -1.633,5.176 -1.101,10.626 1.406,15.45 2.625,5.019 7.188,8.75 12.762,10.41 15.578,4.648 32.133,-3.945 36.856,-19.082 2.992,-9.688 2.062,-19.961 -2.657,-28.887 -4.937,-9.316 -13.308,-16.133 -23.574,-19.219 -27.519,-8.3 -56.773,6.934 -65.176,33.887 -5.144,16.68 -3.496,34.317 4.653,49.785 8.464,16.016 22.808,27.754 40.437,33.067 46.192,13.871 95.234,-11.719 109.324,-57.11 1.758,-5.742 7.825,-8.925 13.567,-7.148 5.664,1.797 8.801,7.949 7.07,13.652 -17.598,56.719 -78.691,88.763 -136.16,71.469"
             id="path2907"
             style="fill:#231f20;fill-opacity:1;fill-rule:nonzero;stroke:none" />
          <path
             d="m 1106.86,1182.89 c -17.1,-19.6 -25.45,-44.64 -23.56,-70.43 1.95,-25.91 14.07,-49.54 34.1,-66.48 4.51,-3.87 11.35,-3.26 15.23,1.33 3.8,4.63 3.21,11.49 -1.35,15.38 -15.51,13.11 -24.88,31.37 -26.38,51.39 -1.55,19.92 4.94,39.26 18.18,54.37 21.38,24.38 58.93,27.19 83.7,6.25 9.2,-7.71 14.69,-18.41 15.57,-30.19 0.88,-11.68 -2.9,-23.06 -10.69,-32.01 -12.25,-13.97 -33.9,-15.57 -48.21,-3.54 -4.98,4.25 -8.03,10.21 -8.5,16.69 -0.5,6.4 1.63,12.63 5.83,17.52 6.52,7.35 17.91,8.21 25.35,1.87 2.49,-2.08 3.95,-4.86 4.18,-7.92 0.27,-3.06 -0.68,-6 -2.79,-8.35 -3.93,-4.53 -3.5,-11.4 0.97,-15.37 4.55,-3.97 11.31,-3.55 15.27,0.98 5.96,6.82 8.85,15.5 8.15,24.46 -0.71,8.97 -4.91,17.1 -11.87,22.89 -16.3,13.87 -41.22,12.02 -55.46,-4.14 -8.15,-9.36 -12.12,-21.29 -11.18,-33.55 0.87,-12.4 6.61,-23.66 16.14,-31.75 23.24,-19.56 58.37,-16.92 78.32,5.82 11.73,13.4 17.4,30.45 16.05,48.05 -1.35,17.66 -9.6,33.72 -23.19,45.24 -33.76,28.45 -84.79,24.63 -113.86,-8.51"
             id="path2909"
             style="fill:#231f20;fill-opacity:1;fill-rule:nonzero;stroke:none" />
          <path
             d="m 1247.37,1067.17 c -25.05,-8.78 -45.08,-26.72 -56.23,-50.53 -10.93,-23.226 -12.12,-49.324 -3.35,-73.464 2.04,-5.664 8.26,-8.535 13.88,-6.465 5.6,2.051 8.47,8.32 6.43,13.984 -6.74,18.594 -5.86,38.715 2.58,56.625 8.7,18.48 24.26,32.44 43.81,39.25 30.84,10.88 64.84,-4.86 75.86,-35.04 3.98,-10.88 3.43,-22.678 -1.53,-33.218 -5.11,-10.859 -14.27,-19.101 -25.76,-23.124 -17.79,-6.25 -37.38,2.753 -43.66,20.097 -2.15,5.977 -1.85,12.414 0.81,18.168 2.87,6.024 7.93,10.577 14.3,12.837 9.36,3.26 19.66,-1.43 23.02,-10.54 0.98,-2.797 0.82,-5.871 -0.45,-8.59 -1.38,-2.89 -3.8,-5.098 -6.93,-6.191 -5.61,-1.992 -8.6,-8.223 -6.59,-13.887 1.98,-5.664 8.13,-8.672 13.76,-6.66 8.57,3.027 15.43,9.199 19.28,17.383 3.77,8.047 4.25,17.043 1.21,25.445 -7.4,20.21 -30.02,30.78 -50.4,23.61 -11.95,-4.23 -21.41,-12.77 -26.77,-24.1 -5.14,-11.076 -5.7,-23.49 -1.52,-35.014 10.29,-28.379 42.2,-43.242 71.03,-33.125 17.05,5.957 30.61,18.164 38.24,34.395 7.43,15.82 8.27,33.584 2.33,50.004 -15.08,41.3 -61.43,62.87 -103.35,48.15"
             id="path2911"
             style="fill:#231f20;fill-opacity:1;fill-rule:nonzero;stroke:none" />
          <path
             d="m 1157.39,829.328 c -2.51,-5.469 -0.18,-11.953 5.2,-14.492 5.41,-2.559 11.85,-0.234 14.41,5.234 17.66,37.813 63.38,54.414 101.9,37.032 14.53,-6.543 25.51,-18.262 30.92,-32.969 5.29,-14.356 4.65,-29.863 -1.8,-43.735 -10.43,-22.25 -37.36,-32.007 -60.08,-21.757 -8.35,3.789 -14.63,10.468 -17.78,18.89 -3.02,8.18 -2.63,17.047 1.06,24.981 5.74,12.246 20.71,17.656 33.3,11.992 4.37,-1.973 7.67,-5.453 9.33,-9.844 1.56,-4.281 1.35,-8.871 -0.56,-13.012 -2.74,-5.937 -10.03,-8.527 -16.15,-5.738 -5.45,2.461 -11.88,0 -14.32,-5.512 -2.44,-5.449 0,-11.886 5.43,-14.347 16.89,-7.641 36.88,-0.262 44.64,16.34 4.41,9.461 4.84,20.078 1.19,29.886 -3.66,9.883 -11.03,17.754 -20.73,22.149 -23.3,10.449 -51,0.293 -61.69,-22.656 -6.21,-13.321 -6.84,-28.149 -1.76,-41.84 5.12,-13.942 15.49,-25.039 29.19,-31.168 33.38,-15.121 73.05,-0.532 88.5,32.359 8.95,19.199 9.87,40.727 2.54,60.57 -7.48,20.254 -22.52,36.368 -42.38,45.332 -49.21,22.168 -107.66,0.821 -130.36,-47.695"
             id="path2913"
             style="fill:#231f20;fill-opacity:1;fill-rule:nonzero;stroke:none" />
          <path
             d="m 1060.25,761.871 c -5.17,-3.031 -6.97,-9.691 -3.98,-14.91 3.01,-5.172 9.63,-6.973 14.81,-3.961 36.49,21.191 83.73,9.301 105.22,-26.52 7.92,-13.191 10.19,-28.601 6.41,-43.421 -3.83,-15.161 -13.51,-27.868 -27.21,-35.797 -21.54,-12.524 -49.39,-5.512 -62.09,15.597 -4.5,7.5 -5.79,16.313 -3.63,24.77 2.18,8.633 7.71,15.902 15.55,20.492 11.94,6.969 27.44,3.078 34.48,-8.641 2.33,-3.878 2.99,-8.429 1.93,-12.808 -1.2,-4.512 -4.08,-8.344 -8.27,-10.723 -5.77,-3.398 -13.28,-1.527 -16.73,4.141 -3.08,5.148 -9.77,6.781 -14.88,3.691 -5.06,-3.16 -6.7,-9.82 -3.62,-14.98 9.53,-15.742 30.22,-21.02 46.11,-11.68 9.19,5.309 15.68,13.91 18.31,24.141 2.56,10.097 1.02,20.59 -4.36,29.547 -13.11,21.722 -41.67,29.019 -63.75,16.191 -12.98,-7.539 -22.11,-19.609 -25.74,-33.98 -3.62,-14.161 -1.49,-28.891 6.07,-41.45 18.76,-31.172 59.79,-41.601 91.45,-23.179 18.74,10.898 32.02,28.359 37.36,49.218 5.24,20.582 2.06,41.93 -8.9,60.192 -27.57,45.859 -87.89,61.16 -134.54,34.07"
             id="path2915"
             style="fill:#231f20;fill-opacity:1;fill-rule:nonzero;stroke:none" />
          <path
             d="m 942.754,773.719 c -1.348,-5.84 2.273,-11.68 8.137,-13.047 20.3,-4.742 37.379,-17.012 48.054,-34.492 10.345,-16.91 13.485,-36.758 8.815,-55.918 -7.56,-31.153 -39.608,-50.442 -71.42,-43.024 -11.914,2.75 -21.926,9.922 -28.281,20.25 -6.047,9.922 -7.871,21.602 -5.2,32.871 4.329,17.852 22.746,28.95 41.02,24.672 6.641,-1.562 12.207,-5.531 15.699,-11.23 3.293,-5.41 4.36,-11.86 2.824,-18.071 -2.214,-9.289 -11.953,-15.089 -21.582,-12.851 -3.215,0.762 -5.937,2.699 -7.597,5.41 -1.59,2.602 -2.078,5.652 -1.375,8.582 1.422,5.867 -2.153,11.75 -7.942,13.18 -5.769,1.429 -11.64,-2.172 -13.066,-8.031 -2.09,-8.61 -0.695,-17.54 3.984,-25.129 4.719,-7.743 12.188,-13.129 21.121,-15.18 21.117,-4.961 42.434,8.027 47.512,28.891 2.852,11.949 0.898,24.226 -5.508,34.66 -6.543,10.648 -16.875,18.129 -29.187,20.976 -29.785,6.973 -59.817,-11.328 -66.938,-40.738 -4.051,-16.93 -1.297,-34.531 7.864,-49.43 9.367,-15.32 24.191,-25.98 41.777,-30.058 43.293,-10.102 86.955,16.437 97.285,59.097 6.03,24.84 2.02,50.563 -11.38,72.461 -13.8,22.539 -35.651,38.282 -61.64,44.321 -5.835,1.359 -11.589,-2.289 -12.976,-8.172"
             id="path2917"
             style="fill:#231f20;fill-opacity:1;fill-rule:nonzero;stroke:none" />
          <path
             d="m 299.336,840.754 c -13.176,-19.492 -17.957,-42.856 -13.379,-65.883 4.578,-23.301 18.137,-43.383 38.203,-56.601 33.77,-22.09 79.57,-13.04 102.149,20.16 9.05,13.34 12.336,29.41 9.199,45.191 -3.153,15.957 -12.449,29.711 -26.133,38.715 -23.477,15.273 -55.137,8.984 -70.723,-14.027 -6.406,-9.387 -8.703,-20.7 -6.504,-31.829 2.188,-11.289 8.758,-20.96 18.457,-27.289 16.602,-10.961 39.278,-6.519 50.567,9.957 3.371,4.942 2.156,11.743 -2.754,15.141 -4.934,3.422 -11.688,2.191 -15.078,-2.801 -4.629,-6.769 -13.992,-8.59 -20.879,-4.039 -4.832,3.153 -8.066,7.832 -9.133,13.281 -1.031,5.321 0.078,10.75 3.176,15.301 9.023,13.321 27.441,16.91 41.035,8 8.816,-5.742 14.758,-14.511 16.785,-24.66 1.946,-10 -0.152,-20.16 -5.879,-28.66 -15.972,-23.512 -48.511,-29.883 -72.476,-14.18 -15.149,9.957 -25.371,25.098 -28.84,42.641 -3.418,17.187 0.215,34.687 10.078,49.297 26.809,39.492 81.348,50.176 121.555,23.808 4.976,-3.242 11.687,-1.816 14.937,3.184 3.254,5.059 1.86,11.797 -3.133,15.078 -49.961,32.754 -117.793,19.414 -151.23,-29.785"
             id="path2919"
             style="fill:#231f20;fill-opacity:1;fill-rule:nonzero;stroke:none" />
          <path
             d="m 427.668,1400.65 c -18.957,-6.25 -34.211,-19.38 -42.98,-37.1 -8.583,-17.28 -9.876,-36.81 -3.672,-55.01 10.664,-31.45 45.363,-48.56 77.265,-38.11 13.157,4.29 23.739,13.45 29.785,25.75 5.95,12 6.875,25.58 2.579,38.19 -7.532,22.15 -31.895,34.22 -54.375,26.88 -9.368,-3.1 -17,-9.63 -21.297,-18.43 -4.289,-8.65 -4.961,-18.42 -1.875,-27.52 1.953,-5.68 8.062,-8.72 13.711,-6.79 5.691,1.96 8.699,8.17 6.707,13.83 -1.161,3.55 -0.899,7.38 0.761,10.73 1.758,3.55 4.883,6.19 8.703,7.44 11.29,3.7 23.473,-2.22 27.208,-13.18 2.39,-7.09 1.863,-14.7 -1.426,-21.43 -3.535,-7.02 -9.582,-12.27 -17.192,-14.75 -20.75,-6.8 -43.211,4.17 -50.093,24.43 -4.321,12.65 -3.418,26.23 2.554,38.23 6.172,12.44 16.938,21.71 30.317,26.11 35.554,11.7 74.058,-7.17 85.945,-41.99 7.285,-21.36 5.723,-44.26 -4.285,-64.5 -10.344,-20.91 -28.469,-36.51 -51.02,-43.88 -5.664,-1.85 -8.765,-7.99 -6.941,-13.71 1.863,-5.73 7.937,-8.85 13.613,-7 28.098,9.21 50.703,28.68 63.652,54.86 12.657,25.5 14.598,54.37 5.411,81.26 -15.633,46.06 -66.336,71.01 -113.055,55.69"
             id="path2921"
             style="fill:#231f20;fill-opacity:1;fill-rule:nonzero;stroke:none" />
          <path
             d="m 681.809,1189.78 c -7.121,-18.53 -6.614,-38.73 1.328,-56.87 8.054,-18.27 22.664,-32.3 41.172,-39.53 31.968,-12.33 67.925,3.69 80.156,35.72 5.039,13.03 4.707,27.28 -0.942,40.12 -5.601,12.83 -15.933,22.68 -28.945,27.73 -22.906,8.81 -48.75,-2.66 -57.461,-25.6 -2.637,-6.89 0.742,-14.58 7.59,-17.23 6.824,-2.64 14.473,0.77 17.063,7.65 3.589,9.25 14.011,13.87 23.375,10.28 6.378,-2.48 11.437,-7.31 14.21,-13.6 2.723,-6.33 2.891,-13.32 0.418,-19.74 -6.992,-18.37 -27.605,-27.51 -45.984,-20.42 -11.875,4.6 -21.289,13.65 -26.418,25.37 -5.113,11.66 -5.43,24.63 -0.906,36.48 12.527,32.52 49.031,48.74 81.445,36.2 20.496,-7.98 36.699,-23.48 45.496,-43.65 8.821,-20.05 9.406,-42.31 1.535,-62.73 -20.957,-54.62 -82.382,-81.94 -136.867,-60.86 -6.804,2.66 -14.441,-0.8 -17.117,-7.67 -2.566,-6.88 0.82,-14.57 7.629,-17.22 68.113,-26.315 144.812,7.84 171.023,76.13 10.43,27.06 9.7,56.6 -1.972,83.14 -11.707,26.7 -33.106,47.18 -60.215,57.68 -45.984,17.89 -97.852,-5.2 -115.613,-51.38"
             id="path2923"
             style="fill:#231f20;fill-opacity:1;fill-rule:nonzero;stroke:none" />
          <path
             d="m 503.203,1504.93 c -11.316,-32.7 -9.187,-67.89 5.977,-99.07 15.578,-31.94 42.968,-55.84 77.019,-67.26 57.063,-19.12 119.399,11.09 138.906,67.36 7.833,22.46 6.372,46.65 -4.089,68.04 -10.657,21.93 -29.414,38.35 -52.774,46.2 -39.726,13.22 -82.961,-7.8 -96.472,-46.9 -3.071,-8.79 1.558,-18.42 10.261,-21.48 8.731,-3.05 18.289,1.6 21.281,10.37 7.54,21.84 31.93,33.52 54.391,26.03 14.738,-4.94 26.574,-15.27 33.32,-29.04 6.457,-13.27 7.356,-28.21 2.539,-42.11 -13.562,-39 -56.98,-59.86 -96.832,-46.53 -25.519,8.55 -45.937,26.37 -57.531,50.2 -11.238,22.97 -12.812,48.94 -4.414,73.1 22.774,65.83 95.985,101.09 163.153,78.56 42.207,-14.13 76.054,-43.67 95.332,-83.15 18.664,-38.27 21.273,-81.43 7.335,-121.59 -37.351,-107.68 -157.011,-165.41 -266.789,-128.62 -8.757,2.91 -18.218,-1.87 -21.113,-10.72 -2.918,-8.77 1.789,-18.32 10.578,-21.27 126.985,-42.51 265.574,24.59 308.867,149.49 16.922,48.74 13.782,101.16 -8.878,147.54 -23.258,47.68 -64,83.27 -114.832,100.27 -84.336,28.33 -176.426,-16.29 -205.235,-99.42"
             id="path2925"
             style="fill:#231f20;fill-opacity:1;fill-rule:nonzero;stroke:none" />
          <path
             d="m 814.855,1629.09 c -19.21,-30.67 -25.253,-67.02 -16.933,-102.32 8.531,-36.2 30.906,-66.95 63.113,-86.53 4.5,-2.76 10.383,-1.32 13.113,3.25 2.727,4.54 1.262,10.48 -3.25,13.22 -27.753,16.9 -47.082,43.35 -54.382,74.5 -7.141,30.25 -1.973,61.34 14.468,87.61 27.129,43.29 85.305,56.47 129.731,29.47 16.93,-10.33 28.75,-26.47 33.203,-45.47 4.344,-18.43 1.227,-37.43 -8.828,-53.43 -16.36,-26.13 -51.469,-34.12 -78.281,-17.76 -10.012,6.13 -17.051,15.67 -19.707,26.92 -2.59,10.92 -0.762,22.11 5.183,31.57 9.492,15.14 29.844,19.72 45.418,10.25 5.676,-3.48 9.594,-8.87 11.086,-15.16 1.399,-6.04 0.399,-12.23 -2.898,-17.49 -2.844,-4.49 -1.496,-10.45 2.957,-13.26 4.492,-2.85 10.34,-1.53 13.164,3 6.074,9.65 7.949,21.05 5.39,32.16 -2.656,11.38 -9.675,21.04 -19.773,27.2 -24.438,14.89 -56.508,7.51 -71.496,-16.39 -8.692,-13.94 -11.406,-30.34 -7.637,-46.29 3.867,-16.35 13.926,-30.2 28.438,-39.01 35.656,-21.71 82.468,-10.99 104.336,23.97 12.82,20.44 16.79,44.65 11.31,68.18 -5.69,24.08 -20.588,44.49 -41.982,57.5 -53.262,32.37 -123.176,16.4 -155.743,-35.69"
             id="path2927"
             style="fill:#231f20;fill-opacity:1;fill-rule:nonzero;stroke:none" />
          <path
             d="m 987.969,1501.27 c -53.489,-2.77 -102.324,-26.03 -137.559,-65.55 -33.984,-38.13 -51.164,-87.09 -48.32,-137.75 7.312,-130.66 121.633,-231.4 254.75,-224.59 9.16,0.5 16.2,8.35 15.69,17.56 -0.49,9.17 -8.22,16.31 -17.38,15.82 -114.994,-5.9 -213.634,80.72 -219.962,193.11 -2.329,41.7 11.832,82.02 39.89,113.52 29.285,32.84 70,52.21 114.59,54.5 70.322,3.66 130.582,-49.24 134.372,-117.87 1.48,-25.13 -7.04,-49.37 -23.9,-68.32 -17.71,-19.84 -42.24,-31.54 -69.17,-32.91 -41.771,-2.18 -77.564,29.14 -79.818,69.79 -0.832,14.47 4.153,28.45 13.848,39.35 10.227,11.49 24.465,18.26 40.13,19.03 23.45,1.28 43.54,-16.21 44.8,-38.93 0.53,-9.23 8.37,-16.26 17.48,-15.75 9.18,0.54 16.13,8.42 15.63,17.61 -2.3,41.05 -38.06,72.68 -79.66,70.48 -24.454,-1.26 -46.888,-11.96 -63.021,-30.1 -15.703,-17.58 -23.574,-40.17 -22.312,-63.59 3.223,-58.92 54.668,-104.36 114.603,-101.27 35.83,1.87 68.54,17.48 92.18,44 22.77,25.59 34.3,58.45 32.33,92.45 -4.8,86.94 -80.7,153.98 -169.191,149.41"
             id="path2929"
             style="fill:#231f20;fill-opacity:1;fill-rule:nonzero;stroke:none" />
          <path
             d="m 1303.9,769.371 c -0.99,-3.23 0.78,-6.641 3.99,-7.641 3.22,-0.96 6.58,0.84 7.53,4.059 6.76,22.172 30.67,34.859 53.38,28.191 8.54,-2.558 15.57,-8.25 19.73,-16 4.02,-7.539 4.84,-16.109 2.36,-24.281 -3.96,-13.051 -18.04,-20.449 -31.42,-16.461 -4.94,1.383 -8.97,4.653 -11.35,9.121 -2.32,4.262 -2.79,9.161 -1.43,13.813 2.25,7.199 10.1,11.316 17.52,9.137 2.56,-0.758 4.69,-2.457 5.98,-4.829 1.17,-2.179 1.41,-4.699 0.66,-7.128 -0.99,-3.454 -4.9,-5.454 -8.45,-4.391 -3.23,0.937 -6.55,-0.859 -7.5,-4.082 -0.94,-3.238 0.86,-6.641 4.08,-7.559 9.92,-2.992 20.41,2.578 23.4,12.481 1.7,5.469 1.13,11.347 -1.58,16.461 -2.76,5.218 -7.41,9.047 -13.15,10.707 -13.69,4.043 -28.26,-3.688 -32.44,-17.168 -2.36,-7.871 -1.54,-16.039 2.32,-23.223 3.91,-7.328 10.53,-12.719 18.56,-15.039 19.63,-5.84 40.41,5.211 46.31,24.609 3.45,11.25 2.3,23.18 -3.24,33.59 -5.69,10.66 -15.32,18.442 -27,21.903 -28.92,8.492 -59.63,-7.782 -68.26,-36.27"
             id="path2931"
             style="fill:#231f20;fill-opacity:1;fill-rule:nonzero;stroke:none" />
          <path
             d="m 169.746,1328.34 c -6.476,-7.33 -9.726,-16.77 -9.082,-26.56 0.703,-9.9 5.234,-18.93 12.82,-25.47 12.832,-11.11 32.407,-9.91 43.664,2.7 4.551,5.15 6.836,11.76 6.375,18.61 -0.488,6.93 -3.621,13.27 -8.933,17.84 -9.102,7.88 -23.028,7.04 -31.028,-1.92 -3.308,-3.74 -4.929,-8.52 -4.648,-13.5 0.363,-5.04 2.656,-9.66 6.438,-12.97 2.531,-2.19 6.347,-1.95 8.503,0.6 2.207,2.54 1.926,6.38 -0.585,8.58 -1.375,1.18 -2.176,2.8 -2.274,4.55 -0.129,1.68 0.43,3.38 1.563,4.63 3.625,4.03 9.961,4.44 14.16,0.78 2.843,-2.41 4.531,-5.74 4.765,-9.37 0.235,-3.59 -0.925,-7 -3.347,-9.71 -6.86,-7.73 -18.926,-8.42 -26.836,-1.59 -5.078,4.41 -8.164,10.46 -8.598,17.09 -0.43,6.46 1.731,12.73 6.027,17.61 11.973,13.44 32.918,14.74 46.68,2.85 8.723,-7.51 13.914,-17.86 14.656,-29.1 0.664,-11.07 -2.949,-21.73 -10.339,-30.01 -2.239,-2.49 -2.039,-6.35 0.488,-8.59 2.422,-2.26 6.269,-2.01 8.476,0.49 9.579,10.75 14.368,24.55 13.418,38.88 -0.949,14.57 -7.656,27.91 -18.847,37.55 -18.7,16.15 -47.176,14.33 -63.516,-3.97"
             id="path2933"
             style="fill:#231f20;fill-opacity:1;fill-rule:nonzero;stroke:none" />
          <path
             d="m 1297.55,944.055 c -2.22,-2.52 -2.05,-6.348 0.41,-8.614 2.46,-2.246 6.29,-2.07 8.54,0.411 15.68,17.402 42.85,19.043 60.51,3.632 6.62,-5.742 10.6,-13.652 11.09,-22.265 0.53,-8.574 -2.38,-16.836 -8.2,-23.262 -9.26,-10.273 -25.3,-11.172 -35.76,-2.09 -3.79,3.262 -6,7.754 -6.31,12.676 -0.3,4.902 1.4,9.59 4.68,13.242 5.18,5.742 14.05,6.289 19.87,1.25 1.95,-1.699 3.1,-4.082 3.28,-6.601 0.1,-2.559 -0.76,-4.981 -2.46,-6.895 -2.48,-2.773 -6.84,-3.047 -9.63,-0.605 -2.52,2.207 -6.27,1.953 -8.5,-0.567 -2.22,-2.558 -1.95,-6.367 0.57,-8.594 7.77,-6.835 19.65,-6.074 26.48,1.622 3.97,4.355 5.92,9.921 5.55,15.8 -0.33,5.821 -2.99,11.153 -7.44,15.02 -10.72,9.336 -27.11,8.359 -36.62,-2.266 -5.55,-6.035 -8.3,-13.945 -7.83,-22.129 0.52,-8.222 4.18,-15.742 10.48,-21.152 15.36,-13.359 38.95,-11.992 52.56,3.105 8.01,8.907 12.03,20.332 11.33,32.168 -0.76,11.934 -6.13,22.852 -15.27,30.762 -22.58,19.668 -57.31,17.598 -77.33,-4.648"
             id="path2935"
             style="fill:#231f20;fill-opacity:1;fill-rule:nonzero;stroke:none" />
          <path
             d="m 1277.04,1172.62 c -29.38,-0.87 -53.5,-25.35 -53.81,-54.57 -0.07,-3.29 2.51,-5.96 5.83,-6 3.27,-0.03 5.89,2.62 5.96,5.9 0.25,22.89 19.24,42.09 42.4,42.76 8.69,0.28 16.75,-2.79 22.73,-8.71 5.88,-5.77 9.02,-13.51 8.95,-21.87 -0.18,-13.47 -11.43,-24.81 -25.13,-25.24 -4.94,-0.14 -9.54,1.62 -12.97,5.01 -3.32,3.27 -5.12,7.69 -5.05,12.39 0.07,7.54 6.33,13.8 13.94,14.03 2.66,0.09 5.09,-0.81 6.84,-2.55 1.66,-1.68 2.56,-3.94 2.56,-6.37 0,-3.65 -3.18,-6.81 -6.87,-6.93 -3.29,-0.08 -5.86,-2.82 -5.75,-6.09 0.09,-3.29 2.79,-5.88 6.08,-5.77 10.04,0.28 18.26,8.64 18.36,18.67 0.08,5.69 -2.07,11.01 -6.13,14.99 -4.09,4.04 -9.57,6.16 -15.49,5.98 -13.87,-0.46 -25.26,-12.02 -25.4,-25.85 -0.06,-7.95 2.96,-15.41 8.61,-20.99 5.76,-5.66 13.47,-8.69 21.65,-8.45 19.96,0.67 36.35,17.28 36.54,37.06 0.1,11.65 -4.31,22.46 -12.48,30.47 -8.3,8.21 -19.45,12.52 -31.37,12.13"
             id="path2937"
             style="fill:#231f20;fill-opacity:1;fill-rule:nonzero;stroke:none" />
          <path
             d="m 988.508,1540.32 c -0.141,-2.93 2.117,-5.44 5.047,-5.62 2.949,-0.16 5.437,2.14 5.605,5.09 1,20.35 18.75,36.14 39.55,35.13 7.86,-0.35 15.14,-3.76 20.37,-9.6 5.06,-5.6 7.62,-12.77 7.29,-20.26 -0.6,-11.97 -11.06,-21.22 -23.34,-20.66 -4.55,0.22 -8.74,2.19 -11.76,5.56 -2.87,3.18 -4.32,7.29 -4.06,11.55 0.27,6.61 6.12,11.71 12.89,11.41 2.43,-0.12 4.59,-1.13 6.14,-2.88 1.56,-1.68 2.3,-3.83 2.23,-6.06 -0.08,-1.5 -0.76,-2.84 -1.9,-3.89 -1.19,-1.08 -2.75,-1.66 -4.41,-1.59 -2.9,0.19 -5.38,-2.1 -5.55,-5.05 -0.15,-2.96 2.1,-5.48 5.05,-5.61 4.5,-0.25 8.72,1.27 12.07,4.34 3.22,2.93 5.1,6.93 5.35,11.26 0.28,5.13 -1.55,10.01 -4.97,13.78 -3.48,3.91 -8.28,6.16 -13.51,6.39 -12.62,0.6 -23.41,-9.06 -24.04,-21.56 -0.37,-7.09 2.06,-13.95 6.81,-19.27 4.94,-5.47 11.72,-8.69 19.16,-9.07 18.1,-0.84 33.53,12.95 34.42,30.83 0.54,10.32 -3.01,20.26 -9.97,27.96 -7.16,7.96 -17.05,12.62 -27.81,13.13 -26.59,1.27 -49.315,-19.04 -50.662,-45.31"
             id="path2939"
             style="fill:#231f20;fill-opacity:1;fill-rule:nonzero;stroke:none" />
          <path
             d="m 1007.71,1695.84 c -12.632,-7.55 -21.499,-19.55 -24.968,-33.73 -3.367,-13.99 -1.082,-28.4 6.496,-40.68 1.758,-2.84 5.508,-3.71 8.328,-1.93 2.824,1.75 3.704,5.5 1.946,8.37 -5.879,9.44 -7.617,20.56 -5.032,31.36 2.688,10.97 9.53,20.27 19.41,26.16 15.62,9.26 36.04,4.39 45.5,-10.94 3.45,-5.57 4.49,-12.09 2.9,-18.45 -1.54,-6.41 -5.59,-11.88 -11.36,-15.31 -8.97,-5.38 -20.73,-2.55 -26.23,6.3 -1.87,3.01 -2.42,6.57 -1.57,10.04 0.86,3.59 3.08,6.61 6.28,8.5 4.78,2.83 10.99,1.35 13.84,-3.3 0.87,-1.44 1.15,-3.15 0.77,-4.77 -0.4,-1.7 -1.49,-3.12 -3.03,-4.02 -2.88,-1.7 -3.81,-5.43 -2.13,-8.31 1.66,-2.93 5.39,-3.88 8.27,-2.17 4.33,2.56 7.4,6.68 8.56,11.55 1.21,4.85 0.45,9.87 -2.2,14.13 -6.31,10.21 -19.87,13.47 -30.21,7.37 -6.03,-3.61 -10.25,-9.3 -11.86,-16.06 -1.66,-6.69 -0.54,-13.6 3.06,-19.4 8.89,-14.42 28.05,-19.05 42.59,-10.29 8.59,5.09 14.59,13.23 16.93,22.88 2.36,9.48 0.81,19.38 -4.35,27.72 -12.95,20.92 -40.7,27.58 -61.94,14.98"
             id="path2941"
             style="fill:#231f20;fill-opacity:1;fill-rule:nonzero;stroke:none" />
          <path
             d="m 1137.19,1488.04 c -14.94,-13.83 -23.49,-32.58 -24.07,-52.73 -0.6,-20.17 6.85,-39.39 20.91,-54.04 3.27,-3.38 8.61,-3.48 11.89,-0.23 3.39,3.28 3.46,8.65 0.21,11.98 -10.92,11.39 -16.66,26.22 -16.18,41.78 0.45,15.56 7.07,30.05 18.59,40.76 18.6,17.2 47.85,16.36 65.38,-1.83 6.36,-6.66 9.69,-15.32 9.46,-24.44 -0.26,-9.15 -4.15,-17.72 -10.96,-24.06 -10.67,-9.85 -27.49,-9.34 -37.52,1.13 -3.54,3.64 -5.41,8.38 -5.27,13.37 0.12,5.07 2.28,9.76 6.07,13.29 5.58,5.18 14.51,4.91 19.78,-0.58 1.71,-1.78 2.61,-4.06 2.54,-6.46 -0.12,-2.36 -1.1,-4.59 -2.86,-6.25 -3.42,-3.15 -3.67,-8.5 -0.5,-11.97 3.12,-3.44 8.44,-3.64 11.85,-0.49 5.19,4.8 8.11,11.28 8.28,18.25 0.23,6.98 -2.37,13.62 -7.21,18.7 -11.55,12.05 -31,12.6 -43.28,1.29 -7.19,-6.67 -11.24,-15.66 -11.51,-25.35 -0.23,-9.6 3.3,-18.71 10.03,-25.61 16.27,-17 43.66,-17.83 61,-1.75 10.18,9.47 15.99,22.22 16.39,36.01 0.41,13.69 -4.67,26.73 -14.23,36.68 -23.74,24.8 -63.56,25.89 -88.79,2.55"
             id="path2943"
             style="fill:#231f20;fill-opacity:1;fill-rule:nonzero;stroke:none" />
          <path
             d="m 405.461,1545.31 c -7.512,-11.47 -10.129,-25.15 -7.285,-38.49 2.871,-13.55 10.933,-25.14 22.722,-32.64 19.993,-12.73 46.778,-7.07 59.727,12.65 5.281,8.02 7.043,17.58 5.09,26.92 -1.992,9.46 -7.629,17.59 -15.879,22.83 -14.16,9.03 -33.164,5.03 -42.316,-8.92 -3.868,-5.86 -5.196,-12.78 -3.731,-19.6 1.387,-6.86 7.809,-13.99 10.777,-15.55 4.219,-2.03 7.657,-3.44 11.739,-1.05 4.031,2.37 3.636,9.1 -1.996,14.33 -2.161,1.34 -3.555,3.39 -4.055,5.81 -0.496,2.3 -0.078,4.69 1.301,6.7 4.109,6.31 12.808,8.08 19.312,3.97 4.36,-2.81 7.348,-7.06 8.371,-12 1.067,-4.92 0.098,-9.89 -2.668,-14.07 -7.91,-12.09 -24.39,-15.53 -36.66,-7.67 -7.945,5.03 -13.367,12.77 -15.254,21.81 -1.89,8.87 -0.183,17.95 4.848,25.57 13.777,20.98 42.469,26.96 63.887,13.37 13.406,-8.56 22.656,-21.76 25.894,-37.12 3.215,-15.13 0.266,-30.66 -8.289,-43.67 -2.539,-3.9 -1.476,-9.13 2.41,-11.74 3.852,-2.59 9.094,-1.48 11.692,2.39 11.015,16.86 14.824,36.95 10.605,56.58 -4.199,19.85 -16.055,36.89 -33.348,47.9 -29.101,18.49 -68.07,10.23 -86.894,-18.31"
             id="path2945"
             style="fill:#231f20;fill-opacity:1;fill-rule:nonzero;stroke:none" />
          <path
             d="m 545.77,1688.55 c -14.012,-1.64 -26.461,-8.66 -35.094,-19.7 -8.332,-10.71 -12.055,-24 -10.371,-37.41 2.722,-23.33 24.312,-40.08 48.054,-37.32 9.766,1.1 18.399,5.97 24.446,13.65 5.84,7.54 8.425,16.82 7.332,26.25 -1.953,16.64 -17.293,28.57 -34.129,26.56 -7.07,-0.8 -13.313,-4.33 -17.668,-9.9 -4.246,-5.44 -6.172,-12.21 -5.313,-19.02 0.535,-4.66 4.739,-7.97 9.368,-7.44 4.57,0.58 7.871,4.81 7.351,9.44 -0.312,2.35 0.352,4.66 1.809,6.54 1.582,1.97 3.816,3.26 6.414,3.57 7.636,0.87 14.558,-4.39 15.469,-11.8 0.593,-4.92 -0.762,-9.81 -3.836,-13.71 -3.235,-4.12 -7.903,-6.68 -13.125,-7.31 -14.629,-1.68 -27.793,8.43 -29.497,22.51 -1.089,8.96 1.387,17.81 6.915,24.92 5.824,7.46 14.281,12.21 23.839,13.33 25.254,2.9 48.211,-14.78 51.25,-39.46 1.836,-15.21 -2.414,-30.28 -11.906,-42.46 -9.883,-12.63 -24.168,-20.61 -40.308,-22.52 -4.614,-0.55 -7.93,-4.75 -7.407,-9.39 0.5,-4.66 4.719,-7.99 9.328,-7.45 20.586,2.41 38.965,12.68 51.629,28.89 12.258,15.73 17.707,35.23 15.383,54.97 -4.094,33.91 -35.476,58.26 -69.933,54.26"
             id="path2947"
             style="fill:#231f20;fill-opacity:1;fill-rule:nonzero;stroke:none" />
          <path
             d="m 661.223,1683.99 c -4.465,-10.41 -4.582,-21.92 -0.332,-32.46 4.363,-10.77 12.703,-19.1 23.504,-23.55 18.417,-7.61 39.726,0.98 47.468,19.17 3.157,7.42 3.235,15.65 0.246,23.15 -3.086,7.63 -9.062,13.58 -16.765,16.75 -13.282,5.47 -28.656,-0.8 -34.297,-13.89 -1.801,-4.31 0.164,-9.32 4.414,-11.15 4.285,-1.86 9.246,0.12 11.094,4.42 1.953,4.72 7.593,6.91 12.476,4.93 3.457,-1.4 6.125,-4.09 7.473,-7.48 1.277,-3.22 1.277,-6.79 -0.137,-10.02 -4.109,-9.78 -15.605,-14.32 -25.566,-10.19 -6.602,2.68 -11.719,7.76 -14.309,14.26 -2.554,6.25 -2.488,13.15 0.196,19.35 7.472,17.61 28.175,25.85 46.093,18.49 11.516,-4.76 20.371,-13.59 24.961,-24.93 4.453,-11 4.387,-23.05 -0.293,-33.99 -12.715,-29.84 -47.808,-43.9 -78.308,-31.37 -4.286,1.8 -9.219,-0.32 -10.926,-4.64 -1.777,-4.33 0.254,-9.28 4.597,-11.05 38.887,-16.02 83.758,2.08 100.11,40.4 6.441,15.1 6.609,31.86 0.418,47.09 -6.348,15.56 -18.445,27.7 -34.192,34.15 -26.394,10.9 -56.836,-1.41 -67.925,-27.44"
             id="path2949"
             style="fill:#231f20;fill-opacity:1;fill-rule:nonzero;stroke:none" />
          <path
             d="m 110.449,1120.36 c -24.9021,-0.27 -44.9217,-20.42 -44.6756,-44.94 0.1836,-20.27 17.1446,-36.58 37.7036,-36.42 8.398,0.11 16.23,3.44 22.082,9.44 5.664,5.83 8.726,13.5 8.629,21.56 -0.094,14.14 -11.903,25.56 -26.297,25.46 -12.1488,-0.16 -21.9418,-10.01 -21.8637,-22.04 0.0665,-4.93 2.0782,-9.62 5.625,-13.06 3.5899,-3.57 8.3677,-5.48 13.4457,-5.41 3.359,0.07 5.996,2.82 5.925,6.19 -0.007,3.36 -2.769,6 -6.121,5.97 -1.804,-0.04 -3.554,0.65 -4.882,1.91 -1.2309,1.26 -1.8755,2.86 -1.9223,4.55 -0.0196,5.31 4.3823,9.67 9.9293,9.77 7.696,0.02 14.024,-6 14.114,-13.47 0.027,-4.82 -1.782,-9.41 -5.2,-12.92 -3.601,-3.68 -8.418,-5.74 -13.601,-5.79 -13.9455,-0.12 -25.3322,10.82 -25.4962,24.39 -0.168,17.81 14.5078,32.46 32.7222,32.67 23.582,0.24 43.047,-18.38 43.262,-41.54 0.051,-3.38 2.793,-6.05 6.094,-6.01 3.348,0.03 6.023,2.78 5.976,6.17 -0.351,29.84 -25.207,53.84 -55.449,53.52"
             id="path2951"
             style="fill:#231f20;fill-opacity:1;fill-rule:nonzero;stroke:none" />
          <path
             d="m 254.434,740.559 c -9.676,-7.207 -15.887,-17.739 -17.547,-29.547 -1.614,-11.762 1.492,-23.422 8.726,-32.871 12.422,-16.161 35.832,-19.34 52.199,-7.192 6.661,4.922 10.938,12.129 12.09,20.289 1.075,8.114 -0.996,16.211 -6.047,22.75 -8.601,11.223 -24.878,13.481 -36.355,5.043 -4.812,-3.59 -7.871,-8.73 -8.633,-14.551 -0.762,-5.761 0.762,-11.5 4.336,-16.128 6.172,-8.071 17.981,-9.731 26.231,-3.711 2.656,1.988 3.3,5.781 1.336,8.5 -1.954,2.711 -5.743,3.32 -8.465,1.359 -2.942,-2.18 -7.332,-1.559 -9.563,1.328 -1.609,2.012 -2.254,4.473 -1.89,6.992 0.281,2.539 1.66,4.871 3.804,6.45 6.172,4.55 15.024,3.32 19.653,-2.758 2.988,-3.883 4.304,-8.731 3.601,-13.571 -0.625,-4.882 -3.254,-9.242 -7.305,-12.23 -11.125,-8.262 -27.019,-6.07 -35.476,4.891 -5.18,6.808 -7.473,15.226 -6.289,23.707 1.18,8.589 5.711,16.211 12.754,21.441 18.875,13.988 45.847,10.328 60.125,-8.219 2.058,-2.64 5.808,-3.109 8.449,-1.07 2.644,2.07 3.102,5.84 1.082,8.527 -18.23,23.672 -52.695,28.422 -76.816,10.571"
             id="path2953"
             style="fill:#231f20;fill-opacity:1;fill-rule:nonzero;stroke:none" />
          <path
             d="m 1216.54,1419.98 c -0.14,-2.94 2.09,-5.45 5.05,-5.61 2.89,-0.14 5.41,2.14 5.55,5.09 1.05,20.36 18.74,36.14 39.59,35.15 7.9,-0.4 15.15,-3.81 20.41,-9.63 5.04,-5.6 7.6,-12.8 7.23,-20.22 -0.62,-11.99 -11.09,-21.28 -23.33,-20.7 -4.55,0.22 -8.71,2.21 -11.74,5.55 -2.88,3.2 -4.31,7.29 -4.09,11.56 0.35,6.59 6.13,11.74 12.93,11.4 2.38,-0.11 4.58,-1.11 6.15,-2.86 1.49,-1.7 2.27,-3.83 2.18,-6.09 -0.07,-1.48 -0.73,-2.83 -1.89,-3.88 -1.16,-1.06 -2.73,-1.64 -4.38,-1.55 -2.92,0.17 -5.44,-2.1 -5.59,-5.09 -0.16,-2.94 2.12,-5.46 5.03,-5.62 4.48,-0.23 8.8,1.31 12.12,4.34 3.22,2.94 5.11,6.95 5.34,11.29 0.24,5.11 -1.52,10 -4.95,13.8 -3.52,3.88 -8.3,6.12 -13.58,6.35 -12.61,0.6 -23.34,-9.05 -23.97,-21.54 -0.36,-7.1 2.06,-13.97 6.79,-19.29 4.93,-5.45 11.73,-8.7 19.16,-9.04 18.08,-0.87 33.55,12.95 34.48,30.81 0.47,10.32 -3.06,20.26 -10.05,27.99 -7.19,7.96 -17.01,12.59 -27.77,13.12 -26.64,1.26 -49.36,-19.08 -50.67,-45.33"
             id="path2955"
             style="fill:#231f20;fill-opacity:1;fill-rule:nonzero;stroke:none" />
        </g>
      </g>
    </g>
  </g>
</svg>
